<mxfile host="app.diagrams.net" modified="2023-11-15T17:43:04.799Z" agent="Mozilla/5.0 (Windows NT 10.0; Win64; x64) AppleWebKit/537.36 (KHTML, like Gecko) Chrome/116.0.5845.837 YaBrowser/23.9.4.837 Yowser/2.5 Safari/537.36" etag="hQrECmedLK83rNr1vE7p" version="22.1.1" type="device">
  <diagram name="Страница — 1" id="p8kqem2BBwi0yJnmgaBL">
    <mxGraphModel dx="1380" dy="639" grid="1" gridSize="10" guides="1" tooltips="1" connect="1" arrows="1" fold="1" page="1" pageScale="1" pageWidth="827" pageHeight="1169" math="0" shadow="0">
      <root>
        <mxCell id="0" />
        <mxCell id="1" parent="0" />
        <mxCell id="dRPKFAY7q9AdYBmP8nrR-1" value=":администрация бассейна" style="shape=umlLifeline;perimeter=lifelinePerimeter;whiteSpace=wrap;html=1;container=1;dropTarget=0;collapsible=0;recursiveResize=0;outlineConnect=0;portConstraint=eastwest;newEdgeStyle={&quot;curved&quot;:0,&quot;rounded&quot;:0};" vertex="1" parent="1">
          <mxGeometry x="700" y="20" width="100" height="720" as="geometry" />
        </mxCell>
        <mxCell id="dRPKFAY7q9AdYBmP8nrR-27" value="" style="html=1;points=[[0,0,0,0,5],[0,1,0,0,-5],[1,0,0,0,5],[1,1,0,0,-5]];perimeter=orthogonalPerimeter;outlineConnect=0;targetShapes=umlLifeline;portConstraint=eastwest;newEdgeStyle={&quot;curved&quot;:0,&quot;rounded&quot;:0};" vertex="1" parent="dRPKFAY7q9AdYBmP8nrR-1">
          <mxGeometry x="45" y="250" width="10" height="80" as="geometry" />
        </mxCell>
        <mxCell id="dRPKFAY7q9AdYBmP8nrR-30" value="" style="html=1;points=[[0,0,0,0,5],[0,1,0,0,-5],[1,0,0,0,5],[1,1,0,0,-5]];perimeter=orthogonalPerimeter;outlineConnect=0;targetShapes=umlLifeline;portConstraint=eastwest;newEdgeStyle={&quot;curved&quot;:0,&quot;rounded&quot;:0};" vertex="1" parent="dRPKFAY7q9AdYBmP8nrR-1">
          <mxGeometry x="50" y="290" width="10" height="40" as="geometry" />
        </mxCell>
        <mxCell id="dRPKFAY7q9AdYBmP8nrR-31" value="подбор подходящих услуг" style="html=1;align=left;spacingLeft=2;endArrow=block;rounded=0;edgeStyle=orthogonalEdgeStyle;curved=0;rounded=0;" edge="1" target="dRPKFAY7q9AdYBmP8nrR-30" parent="dRPKFAY7q9AdYBmP8nrR-1">
          <mxGeometry x="-0.0009" relative="1" as="geometry">
            <mxPoint x="55" y="270" as="sourcePoint" />
            <Array as="points">
              <mxPoint x="85" y="300" />
            </Array>
            <mxPoint as="offset" />
          </mxGeometry>
        </mxCell>
        <mxCell id="dRPKFAY7q9AdYBmP8nrR-56" value="" style="html=1;points=[[0,0,0,0,5],[0,1,0,0,-5],[1,0,0,0,5],[1,1,0,0,-5]];perimeter=orthogonalPerimeter;outlineConnect=0;targetShapes=umlLifeline;portConstraint=eastwest;newEdgeStyle={&quot;curved&quot;:0,&quot;rounded&quot;:0};" vertex="1" parent="dRPKFAY7q9AdYBmP8nrR-1">
          <mxGeometry x="45" y="580" width="10" height="80" as="geometry" />
        </mxCell>
        <mxCell id="dRPKFAY7q9AdYBmP8nrR-59" value="" style="html=1;points=[[0,0,0,0,5],[0,1,0,0,-5],[1,0,0,0,5],[1,1,0,0,-5]];perimeter=orthogonalPerimeter;outlineConnect=0;targetShapes=umlLifeline;portConstraint=eastwest;newEdgeStyle={&quot;curved&quot;:0,&quot;rounded&quot;:0};" vertex="1" parent="dRPKFAY7q9AdYBmP8nrR-1">
          <mxGeometry x="50" y="620" width="10" height="40" as="geometry" />
        </mxCell>
        <mxCell id="dRPKFAY7q9AdYBmP8nrR-60" value="внесение клиента в базу данных бассейна" style="html=1;align=left;spacingLeft=2;endArrow=block;rounded=0;edgeStyle=orthogonalEdgeStyle;curved=0;rounded=0;" edge="1" target="dRPKFAY7q9AdYBmP8nrR-59" parent="dRPKFAY7q9AdYBmP8nrR-1">
          <mxGeometry relative="1" as="geometry">
            <mxPoint x="55" y="600" as="sourcePoint" />
            <Array as="points">
              <mxPoint x="85" y="630" />
            </Array>
          </mxGeometry>
        </mxCell>
        <mxCell id="dRPKFAY7q9AdYBmP8nrR-2" value=":клиент" style="shape=umlLifeline;perimeter=lifelinePerimeter;whiteSpace=wrap;html=1;container=1;dropTarget=0;collapsible=0;recursiveResize=0;outlineConnect=0;portConstraint=eastwest;newEdgeStyle={&quot;curved&quot;:0,&quot;rounded&quot;:0};" vertex="1" parent="1">
          <mxGeometry x="40" y="20" width="100" height="720" as="geometry" />
        </mxCell>
        <mxCell id="dRPKFAY7q9AdYBmP8nrR-6" value="" style="html=1;points=[[0,0,0,0,5],[0,1,0,0,-5],[1,0,0,0,5],[1,1,0,0,-5]];perimeter=orthogonalPerimeter;outlineConnect=0;targetShapes=umlLifeline;portConstraint=eastwest;newEdgeStyle={&quot;curved&quot;:0,&quot;rounded&quot;:0};" vertex="1" parent="dRPKFAY7q9AdYBmP8nrR-2">
          <mxGeometry x="45" y="60" width="10" height="80" as="geometry" />
        </mxCell>
        <mxCell id="dRPKFAY7q9AdYBmP8nrR-9" value="" style="html=1;points=[[0,0,0,0,5],[0,1,0,0,-5],[1,0,0,0,5],[1,1,0,0,-5]];perimeter=orthogonalPerimeter;outlineConnect=0;targetShapes=umlLifeline;portConstraint=eastwest;newEdgeStyle={&quot;curved&quot;:0,&quot;rounded&quot;:0};" vertex="1" parent="dRPKFAY7q9AdYBmP8nrR-2">
          <mxGeometry x="50" y="100" width="10" height="40" as="geometry" />
        </mxCell>
        <mxCell id="dRPKFAY7q9AdYBmP8nrR-10" value="подготовка пакета документов" style="html=1;align=left;spacingLeft=2;endArrow=block;rounded=0;edgeStyle=orthogonalEdgeStyle;curved=0;rounded=0;" edge="1" target="dRPKFAY7q9AdYBmP8nrR-9" parent="dRPKFAY7q9AdYBmP8nrR-2">
          <mxGeometry relative="1" as="geometry">
            <mxPoint x="55" y="80" as="sourcePoint" />
            <Array as="points">
              <mxPoint x="85" y="110" />
            </Array>
          </mxGeometry>
        </mxCell>
        <mxCell id="dRPKFAY7q9AdYBmP8nrR-11" value="" style="html=1;points=[[0,0,0,0,5],[0,1,0,0,-5],[1,0,0,0,5],[1,1,0,0,-5]];perimeter=orthogonalPerimeter;outlineConnect=0;targetShapes=umlLifeline;portConstraint=eastwest;newEdgeStyle={&quot;curved&quot;:0,&quot;rounded&quot;:0};" vertex="1" parent="dRPKFAY7q9AdYBmP8nrR-2">
          <mxGeometry x="45" y="160" width="10" height="80" as="geometry" />
        </mxCell>
        <mxCell id="dRPKFAY7q9AdYBmP8nrR-33" value="" style="html=1;points=[[0,0,0,0,5],[0,1,0,0,-5],[1,0,0,0,5],[1,1,0,0,-5]];perimeter=orthogonalPerimeter;outlineConnect=0;targetShapes=umlLifeline;portConstraint=eastwest;newEdgeStyle={&quot;curved&quot;:0,&quot;rounded&quot;:0};" vertex="1" parent="dRPKFAY7q9AdYBmP8nrR-2">
          <mxGeometry x="45" y="330" width="10" height="80" as="geometry" />
        </mxCell>
        <mxCell id="dRPKFAY7q9AdYBmP8nrR-36" value="" style="html=1;points=[[0,0,0,0,5],[0,1,0,0,-5],[1,0,0,0,5],[1,1,0,0,-5]];perimeter=orthogonalPerimeter;outlineConnect=0;targetShapes=umlLifeline;portConstraint=eastwest;newEdgeStyle={&quot;curved&quot;:0,&quot;rounded&quot;:0};" vertex="1" parent="dRPKFAY7q9AdYBmP8nrR-2">
          <mxGeometry x="40" y="370" width="10" height="40" as="geometry" />
        </mxCell>
        <mxCell id="dRPKFAY7q9AdYBmP8nrR-37" value="выбор понравившейся услуги" style="html=1;align=left;spacingLeft=2;endArrow=block;rounded=0;edgeStyle=orthogonalEdgeStyle;curved=0;rounded=0;" edge="1" target="dRPKFAY7q9AdYBmP8nrR-36" parent="dRPKFAY7q9AdYBmP8nrR-2">
          <mxGeometry relative="1" as="geometry">
            <mxPoint x="45" y="350" as="sourcePoint" />
            <Array as="points">
              <mxPoint x="20" y="350" />
              <mxPoint x="20" y="380" />
            </Array>
          </mxGeometry>
        </mxCell>
        <mxCell id="dRPKFAY7q9AdYBmP8nrR-51" value="" style="html=1;points=[[0,0,0,0,5],[0,1,0,0,-5],[1,0,0,0,5],[1,1,0,0,-5]];perimeter=orthogonalPerimeter;outlineConnect=0;targetShapes=umlLifeline;portConstraint=eastwest;newEdgeStyle={&quot;curved&quot;:0,&quot;rounded&quot;:0};" vertex="1" parent="dRPKFAY7q9AdYBmP8nrR-2">
          <mxGeometry x="45" y="490" width="10" height="80" as="geometry" />
        </mxCell>
        <mxCell id="dRPKFAY7q9AdYBmP8nrR-54" value="" style="html=1;points=[[0,0,0,0,5],[0,1,0,0,-5],[1,0,0,0,5],[1,1,0,0,-5]];perimeter=orthogonalPerimeter;outlineConnect=0;targetShapes=umlLifeline;portConstraint=eastwest;newEdgeStyle={&quot;curved&quot;:0,&quot;rounded&quot;:0};" vertex="1" parent="dRPKFAY7q9AdYBmP8nrR-2">
          <mxGeometry x="40" y="524" width="10" height="40" as="geometry" />
        </mxCell>
        <mxCell id="dRPKFAY7q9AdYBmP8nrR-55" value="оплата абонемента" style="html=1;align=left;spacingLeft=2;endArrow=block;rounded=0;edgeStyle=orthogonalEdgeStyle;curved=0;rounded=0;" edge="1" target="dRPKFAY7q9AdYBmP8nrR-54" parent="dRPKFAY7q9AdYBmP8nrR-2">
          <mxGeometry relative="1" as="geometry">
            <mxPoint x="45" y="504" as="sourcePoint" />
            <Array as="points">
              <mxPoint x="20" y="504" />
              <mxPoint x="20" y="534" />
            </Array>
          </mxGeometry>
        </mxCell>
        <mxCell id="dRPKFAY7q9AdYBmP8nrR-61" value="" style="html=1;points=[[0,0,0,0,5],[0,1,0,0,-5],[1,0,0,0,5],[1,1,0,0,-5]];perimeter=orthogonalPerimeter;outlineConnect=0;targetShapes=umlLifeline;portConstraint=eastwest;newEdgeStyle={&quot;curved&quot;:0,&quot;rounded&quot;:0};" vertex="1" parent="dRPKFAY7q9AdYBmP8nrR-2">
          <mxGeometry x="45" y="670" width="10" height="20" as="geometry" />
        </mxCell>
        <mxCell id="dRPKFAY7q9AdYBmP8nrR-3" value=":касса" style="shape=umlLifeline;perimeter=lifelinePerimeter;whiteSpace=wrap;html=1;container=1;dropTarget=0;collapsible=0;recursiveResize=0;outlineConnect=0;portConstraint=eastwest;newEdgeStyle={&quot;curved&quot;:0,&quot;rounded&quot;:0};" vertex="1" parent="1">
          <mxGeometry x="370" y="20" width="100" height="720" as="geometry" />
        </mxCell>
        <mxCell id="dRPKFAY7q9AdYBmP8nrR-15" value="" style="html=1;points=[[0,0,0,0,5],[0,1,0,0,-5],[1,0,0,0,5],[1,1,0,0,-5]];perimeter=orthogonalPerimeter;outlineConnect=0;targetShapes=umlLifeline;portConstraint=eastwest;newEdgeStyle={&quot;curved&quot;:0,&quot;rounded&quot;:0};" vertex="1" parent="dRPKFAY7q9AdYBmP8nrR-3">
          <mxGeometry x="45" y="160" width="10" height="80" as="geometry" />
        </mxCell>
        <mxCell id="dRPKFAY7q9AdYBmP8nrR-18" value="" style="html=1;points=[[0,0,0,0,5],[0,1,0,0,-5],[1,0,0,0,5],[1,1,0,0,-5]];perimeter=orthogonalPerimeter;outlineConnect=0;targetShapes=umlLifeline;portConstraint=eastwest;newEdgeStyle={&quot;curved&quot;:0,&quot;rounded&quot;:0};" vertex="1" parent="dRPKFAY7q9AdYBmP8nrR-3">
          <mxGeometry x="50" y="200" width="10" height="40" as="geometry" />
        </mxCell>
        <mxCell id="dRPKFAY7q9AdYBmP8nrR-19" value="проверка наличия всех документов" style="html=1;align=left;spacingLeft=2;endArrow=block;rounded=0;edgeStyle=orthogonalEdgeStyle;curved=0;rounded=0;" edge="1" target="dRPKFAY7q9AdYBmP8nrR-18" parent="dRPKFAY7q9AdYBmP8nrR-3">
          <mxGeometry relative="1" as="geometry">
            <mxPoint x="55" y="180" as="sourcePoint" />
            <Array as="points">
              <mxPoint x="85" y="210" />
            </Array>
          </mxGeometry>
        </mxCell>
        <mxCell id="dRPKFAY7q9AdYBmP8nrR-26" value="" style="html=1;points=[[0,0,0,0,5],[0,1,0,0,-5],[1,0,0,0,5],[1,1,0,0,-5]];perimeter=orthogonalPerimeter;outlineConnect=0;targetShapes=umlLifeline;portConstraint=eastwest;newEdgeStyle={&quot;curved&quot;:0,&quot;rounded&quot;:0};" vertex="1" parent="dRPKFAY7q9AdYBmP8nrR-3">
          <mxGeometry x="45" y="250" width="10" height="160" as="geometry" />
        </mxCell>
        <mxCell id="dRPKFAY7q9AdYBmP8nrR-48" value="" style="html=1;points=[[0,0,0,0,5],[0,1,0,0,-5],[1,0,0,0,5],[1,1,0,0,-5]];perimeter=orthogonalPerimeter;outlineConnect=0;targetShapes=umlLifeline;portConstraint=eastwest;newEdgeStyle={&quot;curved&quot;:0,&quot;rounded&quot;:0};" vertex="1" parent="dRPKFAY7q9AdYBmP8nrR-3">
          <mxGeometry x="45" y="420" width="10" height="270" as="geometry" />
        </mxCell>
        <mxCell id="dRPKFAY7q9AdYBmP8nrR-49" value="" style="html=1;points=[[0,0,0,0,5],[0,1,0,0,-5],[1,0,0,0,5],[1,1,0,0,-5]];perimeter=orthogonalPerimeter;outlineConnect=0;targetShapes=umlLifeline;portConstraint=eastwest;newEdgeStyle={&quot;curved&quot;:0,&quot;rounded&quot;:0};" vertex="1" parent="dRPKFAY7q9AdYBmP8nrR-3">
          <mxGeometry x="50" y="460" width="10" height="40" as="geometry" />
        </mxCell>
        <mxCell id="dRPKFAY7q9AdYBmP8nrR-50" value="расчет стоимости" style="html=1;align=left;spacingLeft=2;endArrow=block;rounded=0;edgeStyle=orthogonalEdgeStyle;curved=0;rounded=0;" edge="1" target="dRPKFAY7q9AdYBmP8nrR-49" parent="dRPKFAY7q9AdYBmP8nrR-3">
          <mxGeometry relative="1" as="geometry">
            <mxPoint x="55" y="440" as="sourcePoint" />
            <Array as="points">
              <mxPoint x="85" y="470" />
            </Array>
          </mxGeometry>
        </mxCell>
        <mxCell id="dRPKFAY7q9AdYBmP8nrR-17" value="подтверждение наличия предоставленных документов" style="html=1;verticalAlign=bottom;endArrow=open;dashed=1;endSize=8;curved=0;rounded=0;" edge="1" source="dRPKFAY7q9AdYBmP8nrR-18" parent="1" target="dRPKFAY7q9AdYBmP8nrR-2">
          <mxGeometry relative="1" as="geometry">
            <mxPoint x="345" y="255" as="targetPoint" />
          </mxGeometry>
        </mxCell>
        <mxCell id="dRPKFAY7q9AdYBmP8nrR-21" value="передача пакетов документов" style="html=1;verticalAlign=bottom;endArrow=block;curved=0;rounded=0;exitX=1;exitY=0;exitDx=0;exitDy=5;exitPerimeter=0;" edge="1" parent="1" source="dRPKFAY7q9AdYBmP8nrR-11">
          <mxGeometry relative="1" as="geometry">
            <mxPoint x="105" y="195" as="sourcePoint" />
            <mxPoint x="420" y="185" as="targetPoint" />
          </mxGeometry>
        </mxCell>
        <mxCell id="dRPKFAY7q9AdYBmP8nrR-28" value="передача информации о клиенте&amp;nbsp;" style="html=1;verticalAlign=bottom;endArrow=block;curved=0;rounded=0;entryX=0;entryY=0;entryDx=0;entryDy=5;" edge="1" target="dRPKFAY7q9AdYBmP8nrR-27" parent="1" source="dRPKFAY7q9AdYBmP8nrR-3">
          <mxGeometry relative="1" as="geometry">
            <mxPoint x="675" y="275" as="sourcePoint" />
          </mxGeometry>
        </mxCell>
        <mxCell id="dRPKFAY7q9AdYBmP8nrR-29" value="передача подходящих предоставляемых услуг" style="html=1;verticalAlign=bottom;endArrow=open;dashed=1;endSize=8;curved=0;rounded=0;exitX=0;exitY=1;exitDx=0;exitDy=-5;" edge="1" source="dRPKFAY7q9AdYBmP8nrR-27" parent="1" target="dRPKFAY7q9AdYBmP8nrR-3">
          <mxGeometry relative="1" as="geometry">
            <mxPoint x="675" y="345" as="targetPoint" />
          </mxGeometry>
        </mxCell>
        <mxCell id="dRPKFAY7q9AdYBmP8nrR-34" value="предоставление выбора услуг" style="html=1;verticalAlign=bottom;endArrow=block;curved=0;rounded=0;entryX=1;entryY=0;entryDx=0;entryDy=5;" edge="1" target="dRPKFAY7q9AdYBmP8nrR-33" parent="1" source="dRPKFAY7q9AdYBmP8nrR-3">
          <mxGeometry relative="1" as="geometry">
            <mxPoint x="165" y="355" as="sourcePoint" />
          </mxGeometry>
        </mxCell>
        <mxCell id="dRPKFAY7q9AdYBmP8nrR-41" value="передача информации о выбранной услуге&lt;br&gt;и о необходимом сроке использования абонемента&amp;nbsp;" style="html=1;verticalAlign=bottom;endArrow=open;dashed=1;endSize=8;curved=0;rounded=0;exitX=1;exitY=1;exitDx=0;exitDy=-5;exitPerimeter=0;" edge="1" parent="1" source="dRPKFAY7q9AdYBmP8nrR-33" target="dRPKFAY7q9AdYBmP8nrR-26">
          <mxGeometry relative="1" as="geometry">
            <mxPoint x="160" y="500" as="targetPoint" />
            <mxPoint x="190" y="420" as="sourcePoint" />
          </mxGeometry>
        </mxCell>
        <mxCell id="dRPKFAY7q9AdYBmP8nrR-52" value="запрос на оплату абонемента" style="html=1;verticalAlign=bottom;endArrow=block;curved=0;rounded=0;entryX=1;entryY=0;entryDx=0;entryDy=5;" edge="1" target="dRPKFAY7q9AdYBmP8nrR-51" parent="1" source="dRPKFAY7q9AdYBmP8nrR-3">
          <mxGeometry relative="1" as="geometry">
            <mxPoint x="165" y="509" as="sourcePoint" />
          </mxGeometry>
        </mxCell>
        <mxCell id="dRPKFAY7q9AdYBmP8nrR-53" value="информирование об оплате абонемента" style="html=1;verticalAlign=bottom;endArrow=open;dashed=1;endSize=8;curved=0;rounded=0;exitX=1;exitY=1;exitDx=0;exitDy=-5;" edge="1" source="dRPKFAY7q9AdYBmP8nrR-51" parent="1" target="dRPKFAY7q9AdYBmP8nrR-3">
          <mxGeometry relative="1" as="geometry">
            <mxPoint x="230" y="580" as="targetPoint" />
          </mxGeometry>
        </mxCell>
        <mxCell id="dRPKFAY7q9AdYBmP8nrR-57" value="запрос на внесения клиента в базу данных бассейна" style="html=1;verticalAlign=bottom;endArrow=block;curved=0;rounded=0;entryX=0;entryY=0;entryDx=0;entryDy=5;" edge="1" target="dRPKFAY7q9AdYBmP8nrR-56" parent="1" source="dRPKFAY7q9AdYBmP8nrR-3">
          <mxGeometry relative="1" as="geometry">
            <mxPoint x="675" y="605" as="sourcePoint" />
          </mxGeometry>
        </mxCell>
        <mxCell id="dRPKFAY7q9AdYBmP8nrR-58" value="передача информации о внесении клиента в базу данных" style="html=1;verticalAlign=bottom;endArrow=open;dashed=1;endSize=8;curved=0;rounded=0;exitX=0;exitY=1;exitDx=0;exitDy=-5;" edge="1" source="dRPKFAY7q9AdYBmP8nrR-56" parent="1" target="dRPKFAY7q9AdYBmP8nrR-3">
          <mxGeometry relative="1" as="geometry">
            <mxPoint x="675" y="675" as="targetPoint" />
          </mxGeometry>
        </mxCell>
        <mxCell id="dRPKFAY7q9AdYBmP8nrR-62" value="уведомить работоспособности клиента" style="html=1;verticalAlign=bottom;endArrow=block;curved=0;rounded=0;entryX=1;entryY=0;entryDx=0;entryDy=5;" edge="1" target="dRPKFAY7q9AdYBmP8nrR-61" parent="1" source="dRPKFAY7q9AdYBmP8nrR-3">
          <mxGeometry relative="1" as="geometry">
            <mxPoint x="165" y="695" as="sourcePoint" />
          </mxGeometry>
        </mxCell>
      </root>
    </mxGraphModel>
  </diagram>
</mxfile>
